# xmcd CD database file
#
# Track frame offsets:
#	150
#	15917
#	34542
#	55000
#	68835
#	82929
#	96729
#	112975
#	128197
#	145052
#	161302
#	180895
#	193590
#	206557
#	222835
#	241427
#	255882
#	275025
#	290965
#	306780
#
# Disc length: 4308 seconds
#
# Revision: 0
# Processed by: cddbd v1.4b41PL3 Copyright (c) Steve Scherf et al.
# Submitted via: CDex 1.40Beta5
#
DISCID=1410d214
DTITLE=Lea Laven - Parhat
DYEAR=1900
DGENRE=Blues
TTITLE0=Tumma nainen
TTITLE1=Kortit kertoo kohtalomme
TTITLE2=Rakkaus
TTITLE3=Kriminal tango
TTITLE4=Kuin kissa
TTITLE5=Musta maanantai
TTITLE6=On rakkaus vaikein yksinkertaisuus
TTITLE7=N‰ytit parhainta aikaa
TTITLE8=Merimies, kotimaasi on meri
TTITLE9=Muistojen hehku
TTITLE10=Mit‰ rakkaus on
TTITLE11=Jos syd‰nmett‰ l‰ikyt‰t
TTITLE12=Sanat murenevat
TTITLE13=Silm‰t sata ik‰v‰‰
TTITLE14=Miksi syd‰n joskus myrskyn nostaa
TTITLE15=Oot luonain ain
TTITLE16=Mustasukkaisuutta
TTITLE17=Taivaan lahja
TTITLE18=On aika menn‰
TTITLE19=Viimeinen juna
EXTD=ID3G:   0
EXTT0=
EXTT1=
EXTT2=
EXTT3=
EXTT4=
EXTT5=
EXTT6=
EXTT7=
EXTT8=
EXTT9=
EXTT10=
EXTT11=
EXTT12=
EXTT13=
EXTT14=
EXTT15=
EXTT16=
EXTT17=
EXTT18=
EXTT19=
PLAYORDER=
